<svg xmlns="http://www.w3.org/2000/svg" width="300" height="75" viewBox="0 0 300 75"><rect width="100%" height="100%" fill="#DDDDDD"/><path fill="#999999" d="M102.995 47.02h10.98v4.22h-16.09V23.77h5.11zm40.83-9.52q0 3.02-.99 5.6-1 2.57-2.83 4.45-1.82 1.89-4.39 2.94-2.56 1.05-5.7 1.05-3.11 0-5.68-1.05-2.56-1.05-4.39-2.94-1.84-1.88-2.85-4.45-1-2.58-1-5.6t1-5.59q1.01-2.58 2.85-4.46 1.83-1.88 4.39-2.93 2.57-1.06 5.68-1.06 2.09 0 3.94.49 1.84.48 3.38 1.36 1.54.89 2.76 2.15 1.23 1.26 2.08 2.82.86 1.56 1.31 3.39.44 1.82.44 3.83m-5.22 0q0-2.26-.61-4.05-.61-1.8-1.73-3.05-1.12-1.26-2.73-1.92-1.6-.67-3.62-.67-2.01 0-3.61.67-1.61.66-2.74 1.92-1.13 1.25-1.74 3.05-.61 1.79-.61 4.05t.61 4.06 1.74 3.04 2.74 1.91q1.6.66 3.61.66 2.02 0 3.62-.66 1.61-.67 2.73-1.91t1.73-3.04.61-4.06m23.25-.04h9.12v11.12q-2.09 1.54-4.45 2.25-2.37.71-5.07.71-3.36 0-6.08-1.04-2.73-1.05-4.66-2.91t-2.97-4.44q-1.05-2.59-1.05-5.65 0-3.09 1.01-5.68 1.01-2.58 2.86-4.44 1.85-1.87 4.49-2.89 2.64-1.03 5.93-1.03 1.67 0 3.13.27 1.45.26 2.69.73 1.25.47 2.27 1.13 1.03.67 1.88 1.46l-1.46 2.32q-.34.55-.89.68-.55.12-1.2-.28-.63-.36-1.25-.72-.63-.36-1.4-.63t-1.73-.44-2.21-.17q-2.03 0-3.68.69-1.64.68-2.8 1.95-1.16 1.28-1.79 3.06-.62 1.79-.62 3.99 0 2.36.67 4.21.68 1.85 1.9 3.14 1.23 1.28 2.96 1.95 1.72.68 3.85.68 1.52 0 2.72-.32 1.2-.33 2.34-.88V41.3h-3.46q-.5 0-.77-.27-.28-.28-.28-.68zm40.26.04q0 3.02-.99 5.6-1 2.57-2.82 4.45-1.83 1.89-4.39 2.94-2.57 1.05-5.7 1.05-3.12 0-5.68-1.05-2.57-1.05-4.4-2.94-1.84-1.88-2.84-4.45-1.01-2.58-1.01-5.6t1.01-5.59q1-2.58 2.84-4.46 1.83-1.88 4.4-2.93 2.56-1.06 5.68-1.06 2.09 0 3.93.49 1.84.48 3.38 1.36 1.54.89 2.77 2.15 1.22 1.26 2.08 2.82.85 1.56 1.3 3.39.44 1.82.44 3.83m-5.22 0q0-2.26-.61-4.05-.61-1.8-1.73-3.05-1.12-1.26-2.72-1.92-1.61-.67-3.62-.67-2.02 0-3.62.67-1.61.66-2.74 1.92-1.13 1.25-1.74 3.05-.61 1.79-.61 4.05t.61 4.06 1.74 3.04 2.74 1.91q1.6.66 3.62.66 2.01 0 3.62-.66 1.6-.67 2.72-1.91t1.73-3.04.61-4.06"/></svg>